<?xml version="1.0" encoding="UTF-8"?>
<svg width="38px" height="22px" viewBox="0 0 38 22" version="1.1" xmlns="http://www.w3.org/2000/svg" xmlns:xlink="http://www.w3.org/1999/xlink">
    <!-- Generator: Sketch 52.5 (67469) - http://www.bohemiancoding.com/sketch -->
    <title>合并形状</title>
    <desc>Created with Sketch.</desc>
    <defs>
        <path d="M5,4 L32,4 C33.1045695,4 34,4.8954305 34,6 L34,16 C34,17.1045695 33.1045695,18 32,18 L5,18 C3.8954305,18 3,17.1045695 3,16 L3,6 C3,4.8954305 3.8954305,4 5,4 Z M6.744,6.264 L6.744,15 L7.644,15 L7.644,13.98 C8.064,14.772 8.748,15.168 9.708,15.168 C10.608,15.168 11.316,14.832 11.832,14.184 C12.288,13.584 12.528,12.816 12.528,11.88 C12.528,10.968 12.288,10.224 11.832,9.624 C11.328,8.952 10.632,8.628 9.756,8.628 C8.868,8.628 8.184,9.06 7.704,9.936 L7.704,6.264 L6.744,6.264 Z M9.552,9.42 C10.224,9.42 10.728,9.66 11.076,10.14 C11.388,10.56 11.544,11.136 11.544,11.88 C11.544,12.624 11.388,13.212 11.1,13.644 C10.764,14.124 10.26,14.376 9.588,14.376 C8.964,14.376 8.472,14.136 8.136,13.656 C7.824,13.224 7.668,12.66 7.668,11.964 L7.668,11.844 C7.668,11.124 7.836,10.536 8.196,10.092 C8.532,9.636 8.988,9.42 9.552,9.42 Z M16.332,8.628 C15.432,8.628 14.724,8.952 14.196,9.6 C13.668,10.212 13.416,10.98 13.416,11.892 C13.416,12.9 13.68,13.692 14.232,14.292 C14.76,14.868 15.48,15.168 16.368,15.168 C17.172,15.168 17.832,14.928 18.348,14.472 C18.768,14.088 19.044,13.608 19.188,13.008 L18.228,13.008 C18.072,13.44 17.868,13.764 17.604,13.98 C17.292,14.232 16.872,14.364 16.368,14.364 C15.78,14.364 15.312,14.172 14.976,13.788 C14.64,13.404 14.46,12.864 14.412,12.168 L19.308,12.168 C19.284,11.088 19.044,10.236 18.588,9.636 C18.084,8.964 17.328,8.628 16.332,8.628 Z M16.356,9.432 C17.532,9.432 18.192,10.092 18.312,11.424 L14.436,11.424 C14.496,10.812 14.688,10.332 15.024,9.972 C15.36,9.612 15.804,9.432 16.356,9.432 Z M22.092,6.792 L21.144,7.188 L21.144,8.796 L19.896,8.796 L19.896,9.6 L21.144,9.6 L21.144,13.548 C21.144,14.016 21.24,14.364 21.444,14.604 C21.66,14.868 22.032,15 22.536,15 L23.472,15 L23.472,14.196 L22.68,14.196 C22.464,14.196 22.308,14.136 22.224,14.04 C22.128,13.944 22.092,13.776 22.092,13.548 L22.092,9.6 L23.628,9.6 L23.628,8.796 L22.092,8.796 L22.092,6.792 Z M27.396,8.628 C26.652,8.628 26.064,8.772 25.608,9.06 C25.104,9.372 24.78,9.864 24.648,10.512 L25.596,10.584 C25.692,10.188 25.896,9.888 26.22,9.696 C26.508,9.504 26.88,9.42 27.336,9.42 C28.416,9.42 28.956,9.936 28.956,10.98 L28.956,11.304 L27.468,11.328 C26.532,11.34 25.812,11.52 25.308,11.856 C24.732,12.216 24.456,12.744 24.456,13.452 C24.456,13.956 24.648,14.376 25.032,14.7 C25.404,15.012 25.896,15.168 26.52,15.168 C27.096,15.168 27.612,15.036 28.068,14.784 C28.452,14.568 28.776,14.292 29.016,13.956 L29.016,15 L29.916,15 L29.916,11.016 C29.916,10.296 29.724,9.732 29.364,9.324 C28.932,8.856 28.284,8.628 27.396,8.628 Z M28.956,12.024 L28.956,12.552 C28.956,13.032 28.728,13.464 28.284,13.836 C27.828,14.22 27.312,14.412 26.724,14.412 C26.34,14.412 26.028,14.316 25.788,14.136 C25.548,13.944 25.44,13.716 25.44,13.428 C25.44,12.528 26.136,12.072 27.528,12.048 L28.956,12.024 Z" id="path-1"></path>
        <filter x="-11.3%" y="-17.9%" width="122.6%" height="150.0%" filterUnits="objectBoundingBox" id="filter-2">
            <feOffset dx="0" dy="1" in="SourceAlpha" result="shadowOffsetOuter1"></feOffset>
            <feGaussianBlur stdDeviation="1" in="shadowOffsetOuter1" result="shadowBlurOuter1"></feGaussianBlur>
            <feComposite in="shadowBlurOuter1" in2="SourceAlpha" operator="out" result="shadowBlurOuter1"></feComposite>
            <feColorMatrix values="0 0 0 0 0   0 0 0 0 0   0 0 0 0 0  0 0 0 0.3 0" type="matrix" in="shadowBlurOuter1"></feColorMatrix>
        </filter>
    </defs>
    <g id="Page-1" stroke="none" stroke-width="1" fill="none" fill-rule="evenodd">
        <g id="画板" transform="translate(-840.000000, -42.000000)" fill-rule="nonzero">
            <g id="分组" transform="translate(840.000000, 42.000000)">
                <g id="合并形状">
                    <use fill="black" fill-opacity="1" filter="url(#filter-2)" xlink:href="#path-1"></use>
                    <use fill-opacity="0.5" fill="#FFFFFF" xlink:href="#path-1"></use>
                </g>
            </g>
        </g>
    </g>
</svg>